Coordinates
version=1
nRows=49
nColumns=12
inDegrees=yes

Units are S.I. units (second, meters, Newtons, ...)
Angles are in degrees

endheader
time	SC_y	SC_z	SC_x	AC_y	AC_z	AC_x	GH_y	GH_z	GH_yy	EL_x	PS_y
       0.0              -38.51         -3.824          46.15          34.46         -6.182          5.195         -5.383         -14.68          114.7           9.31          127.0
   0.03104              -38.51         -3.823          46.15          34.46         -6.184          5.192         -5.406         -14.67          114.7          9.315          127.0
   0.06208              -38.51         -3.823          46.15          34.46         -6.186          5.188         -5.431         -14.66          114.7          9.321          127.0
   0.09312              -38.52         -3.822          46.16          34.46         -6.189          5.184         -5.457         -14.65          114.7          9.328          127.0
    0.1242              -38.52         -3.821          46.16          34.46         -6.191           5.18         -5.486         -14.64          114.7          9.334          127.0
    0.1552              -38.52          -3.82          46.16          34.46         -6.193          5.175         -5.515         -14.63          114.7          9.341          127.0
    0.1862              -38.52          -3.82          46.17          34.46         -6.196           5.17         -5.547         -14.62          114.7          9.349          127.0
    0.2173              -38.52         -3.819          46.17          34.46         -6.199          5.165         -5.582          -14.6          114.7          9.357          127.0
    0.2483              -38.53         -3.818          46.18          34.46         -6.202          5.159         -5.618         -14.59          114.7          9.366          127.0
    0.2794              -38.53         -3.817          46.18          34.46         -6.206          5.153         -5.658         -14.57          114.7          9.376          127.0
    0.3104              -38.53         -3.815          46.19          34.46         -6.209          5.147           -5.7         -14.56          114.7          9.386          127.0
    0.3415              -38.54         -3.814          46.19          34.46         -6.213           5.14         -5.745         -14.54          114.7          9.397          127.0
    0.3725              -38.54         -3.813           46.2          34.45         -6.217          5.133         -5.794         -14.52          114.7          9.408          127.0
    0.4035              -38.54         -3.811          46.21          34.45         -6.222          5.125         -5.847          -14.5          114.7          9.421          127.1
    0.4346              -38.55          -3.81          46.21          34.45         -6.227          5.116         -5.904         -14.47          114.7          9.435          127.1
    0.4656              -38.55         -3.808          46.22          34.45         -6.232          5.107         -5.966         -14.45          114.7           9.45          127.1
    0.4967              -38.55         -3.806          46.23          34.45         -6.238          5.096         -6.034         -14.42          114.6          9.466          127.1
    0.5277              -38.56         -3.804          46.24          34.45         -6.244          5.085         -6.107         -14.39          114.6          9.483          127.1
    0.5587              -38.57         -3.802          46.25          34.45         -6.251          5.073         -6.187         -14.36          114.6          9.503          127.1
    0.5898              -38.57           -3.8          46.26          34.45         -6.258           5.06         -6.275         -14.32          114.6          9.524          127.1
    0.6208              -38.58         -3.797          46.28          34.45         -6.267          5.045         -6.371         -14.28          114.6          9.547          127.2
    0.6519              -38.59         -3.795          46.29          34.45         -6.276          5.029         -6.477         -14.24          114.6          9.572          127.2
    0.6829              -38.59         -3.791           46.3          34.44         -6.286          5.011         -6.595         -14.19          114.6            9.6          127.2
    0.7139               -38.6         -3.788          46.32          34.44         -6.297          4.991         -6.725         -14.14          114.6          9.632          127.2
     0.745              -38.61         -3.784          46.34          34.44         -6.309          4.969         -6.869         -14.08          114.5          9.666          127.3
     0.776              -38.62          -3.78          46.36          34.44         -6.323          4.945          -7.03         -14.02          114.5          9.705          127.3
    0.8071              -38.63         -3.775          46.38          34.44         -6.338          4.918          -7.21         -13.95          114.5          9.748          127.3
    0.8381              -38.65         -3.769          46.41          34.43         -6.356          4.887         -7.413         -13.86          114.5          9.797          127.4
    0.8692              -38.66         -3.763          46.44          34.43         -6.375          4.852         -7.643         -13.77          114.4          9.852          127.4
    0.9002              -38.68         -3.756          46.47          34.43         -6.398          4.812         -7.903         -13.67          114.4          9.914          127.5
    0.9312               -38.7         -3.748          46.51          34.42         -6.423          4.767           -8.2         -13.55          114.4          9.986          127.5
    0.9623              -38.72         -3.739          46.56          34.42         -6.452          4.715         -8.542         -13.41          114.3          10.07          127.6
    0.9933              -38.75         -3.729          46.61          34.42         -6.486          4.656         -8.935         -13.25          114.3          10.16          127.7
     1.024              -38.78         -3.716          46.67          34.41         -6.525          4.586         -9.393         -13.07          114.2          10.27          127.8
     1.055              -38.82         -3.702          46.74           34.4         -6.571          4.505         -9.928         -12.85          114.1           10.4          127.9
     1.086              -38.86         -3.685          46.82           34.4         -6.625          4.409         -10.56          -12.6          114.0          10.55          128.0
     1.117              -38.91         -3.665          46.92          34.39         -6.689          4.295         -11.31         -12.29          113.9          10.73          128.1
     1.149              -38.97         -3.641          47.03          34.37         -6.765          4.159         -12.21         -11.93          113.8          10.95          128.3
      1.18              -39.05         -3.611          47.18          34.36         -6.858          3.993          -13.3         -11.49          113.7          11.21          128.5
     1.211              -39.14         -3.576          47.35          34.34         -6.972          3.792         -14.63         -10.96          113.5          11.53          128.8
     1.242              -39.25         -3.532          47.56          34.32         -7.112          3.542         -16.27          -10.3          113.3          11.92          129.1
     1.273              -39.39         -3.477          47.83           34.3         -7.287          3.232         -18.31         -9.471          113.0          12.41          129.5
     1.304              -39.56         -3.408          48.16          34.27         -7.507          2.841         -20.89         -8.432          112.7          13.03          130.0
     1.335              -39.78          -3.32          48.59          34.23         -7.787          2.343         -24.16         -7.111          112.3          13.82          130.6
     1.366              -40.07         -3.207          49.13          34.17         -8.145          1.707         -28.35         -5.421          111.7          14.82          131.5
     1.397              -40.43         -3.063          49.83          34.11         -8.605         0.8899         -33.73         -3.252          111.0          16.11          132.5
     1.428               -40.9         -2.878          50.73          34.02         -9.192        -0.1536          -40.6        -0.4819          110.1          17.76          133.9
     1.459              -41.48         -2.646          51.85          33.92          -9.93         -1.466         -49.24          3.002          108.9          19.83          135.6
      1.49               -42.2         -2.364          53.22          33.78         -10.83         -3.065         -59.77          7.247          107.6          22.36          137.6
